<svg id="_x31__x2C_5" enable-background="new 0 0 24 24" height="512" viewBox="0 0 24 24" width="512" xmlns="http://www.w3.org/2000/svg"><g><path d="m20.5 23c-.414 0-.75-.336-.75-.75v-5.5c0-.414.336-.75.75-.75s.75.336.75.75v5.5c0 .414-.336.75-.75.75z"/></g><g><path d="m23.25 20.25h-5.5c-.414 0-.75-.336-.75-.75s.336-.75.75-.75h5.5c.414 0 .75.336.75.75s-.336.75-.75.75z"/></g><g><path d="m14.25 20h-11.5c-1.517 0-2.75-1.233-2.75-2.75v-13.5c0-1.517 1.233-2.75 2.75-2.75h15.5c1.517 0 2.75 1.233 2.75 2.75v9.5c0 .414-.336.75-.75.75s-.75-.336-.75-.75v-9.5c0-.689-.561-1.25-1.25-1.25h-15.5c-.689 0-1.25.561-1.25 1.25v13.5c0 .689.561 1.25 1.25 1.25h11.5c.414 0 .75.336.75.75s-.336.75-.75.75z"/></g><g><path d="m20.25 6h-19.5c-.414 0-.75-.336-.75-.75s.336-.75.75-.75h19.5c.414 0 .75.336.75.75s-.336.75-.75.75z"/></g></svg>